<svg xmlns="http://www.w3.org/2000/svg" width="1000" height="315.176" viewBox="0 0 264.58333 83.390318"><g fill="#1d1d1b"><path d="M100.069 43.42h32.915v-6.827h-24.293v-6.185h24.293v-6.85h-24.293v-5.515h24.293v-6.83H100.07zM255.974 11.214v19.478l-20.41-19.478h-6.496V43.42h8.607V23.944l20.418 19.476h6.49V11.214zM219.787 11.214h-35.522V43.42h35.523V11.214Zm-8.606 25.38H192.88V18.042h18.3zM82.176 11.214v19.478l-20.41-19.478h-6.5V43.42h8.61V23.944L84.284 43.42h6.504V11.214zM138.937 43.42h10.891l8.821-9.952 8.821 9.952h10.88l-14.264-16.092 14.298-16.114h-10.903l-8.832 9.975-8.844-9.975h-10.901l14.298 16.114z"/></g><path fill="#0098d8" d="m0 70.625 35.944-19.12L0 43.556z"/><path fill="#00365c" d="m0 43.557 35.944 7.947V0L0 19.107z"/><path fill="#cad401" d="M44.578 80.503 80.515 61.4l-44.571-9.896L0 70.624z"/><g fill="#878786"><path d="M156.387 57.832c-2.22.008-4.439.556-6.393 1.642-3.548 1.973-5.935 5.377-6.536 9.323-.124.812-.124 2.822 0 3.618a12.7 12.7 0 0 0 3.625 7.142 12.693 12.693 0 0 0 3.476 2.47c1.515.744 3.07 1.2 4.77 1.317 1.527.106 2.483-.02 2.94-.083 3.432-.481 5.864-1.9 8.04-4.602l.344-.428V68.21h-11.418v4.793h6.531v3.332l-.387.302c-1.244.968-2.71 1.538-4.327 1.681-1.604.142-3.523-.332-4.906-1.211-1.826-1.161-3.038-2.91-3.497-5.043-.229-1.034-.15-2.021 0-2.914a7.866 7.866 0 0 1 2.85-4.58c3.064-2.406 7.565-2.207 10.393.46l.324.307 3.864-3.353-.36-.369c-.741-.761-1.852-1.586-2.943-2.186-1.952-1.072-4.17-1.604-6.39-1.596zM181.408 57.972l-14.482 25.086h28.958zm.001 10.379 5.505 9.538h-11.011zM198.325 57.803l-.001 12.627v12.628h5.378V70.916l7.51 8.204 7.55-8.235v12.173h5.357V57.803L211.212 71.88zM227.082 58.435v24.623H244V78.03h-11.56v-4.887h10.48V68.35h-10.48v-4.887H244v-5.028zM254.822 58.12c-2.016.063-3.746.65-5.244 1.775-1.34 1.006-2.135 2.275-2.41 3.842-.232 1.33-.07 2.994.399 4.096.778 1.832 2.356 3.126 5.132 4.21.63.247 1.999.74 3.383 1.22 1.085.375 1.812.768 2.33 1.258.544.513.738.968.709 1.66-.017.38-.039.469-.193.782-.546 1.103-2.06 1.66-4.086 1.5a11.202 11.202 0 0 1-1.152-.15c-1.633-.347-2.96-1.179-3.9-2.442l-.364-.487-.076-.13-3.665 3.24.13.203a9.846 9.846 0 0 0 1.838 2.11c1.61 1.353 3.723 2.23 5.979 2.483a17.71 17.71 0 0 0 3.513.025c2.373-.225 4.189-1.01 5.488-2.3 1.29-1.284 1.945-2.994 1.947-5.09.002-2.548-.916-4.283-3.01-5.691-1.26-.847-2.784-1.516-5.73-2.514-2.365-.801-3.004-1.176-3.284-1.928-.28-.755-.112-1.533.442-2.04.311-.283.602-.458 1.128-.6 1.046-.283 2.154-.207 3.345.154.795.24 1.372.629 1.933 1.21.207.213.34.377.34.377l3.446-3.046c.022.012-.854-1.01-1.336-1.428-1.66-1.44-3.63-2.19-6.15-2.293-.3-.013-.594-.014-.882-.005z"/></g></svg>